<?xml version="1.0" encoding="UTF-8"?>
<svg width="500px" height="680px" viewBox="0 0 500 680" version="1.1" xmlns="http://www.w3.org/2000/svg" xmlns:xlink="http://www.w3.org/1999/xlink">
    <!-- Generator: Sketch 57.1 (83088) - https://sketch.com -->
    <title>Slice Head</title>
    <desc>Created with Sketch.</desc>
    <g id="Page-1" stroke="none" stroke-width="1" fill="none" fill-rule="evenodd">
        <path d="M235.443248,632.58841 C241.868996,628.588277 235.926307,620.339925 239.728769,607.029658 C246.882108,581.989868 263.249908,541.052609 269.15764,517.885254 C278.205714,482.402953 280.927896,465.884719 278.205714,452.259755 C272.668351,424.544352 272.668351,424.544352 257.659268,402.612133 C250.277101,391.824847 188.278335,366.262982 179.550843,413.250909 C170.82335,460.238837 201.623505,469.400307 201.623505,495.701423 C201.623505,519.968122 201.571575,596.426368 198.027028,608.705923 C194.482481,620.985479 185.130472,615.115164 177.582577,621.327019 C170.143948,627.44895 176.929468,648.56444 179.792444,649.753412 C184.305169,651.627513 227.316482,637.647456 235.443248,632.58841 Z" id="right-leg" fill="#16409F" transform="translate(226.713160, 517.925070) rotate(16.000000) translate(-226.713160, -517.925070) "></path>
        <path d="M297.89899,311.576344 C345.80267,309.590003 436.270693,319.549295 495.933733,319.549295 C501.662585,319.549295 507.35218,319.497122 513.000947,319.400928 L513.005533,519.193453 C463.585581,520.635841 311.848277,546.271822 254.541459,531.987904 C195.588981,517.2938 197.229618,497.121503 166.488741,458.517384 C135.747865,419.913265 150.574224,387.969344 150.574224,374.944667 C150.574224,339.488316 187.275905,316.163363 297.89899,311.576344 Z" id="body-front" fill="#206BE4"></path>
        <path d="M217.178765,517.92507 C232.617128,529.190903 281.933616,540.661617 294.357531,536.302516 C298.937852,534.695448 328.472359,541.13614 389.816257,536.302516 C408.025491,534.86771 442.108694,529.175315 492.065867,519.225331 C344.85561,490.636258 271.250481,475.059201 271.250481,472.494158 C271.250481,452.335765 251.222335,416.847991 223.266381,423.808422 C195.310426,430.768853 154.83688,415.200243 154.83688,435.358637 C154.83688,444.757971 168.670951,460.114237 177.368545,472.494158 C187.324349,486.664982 201.740403,506.659238 217.178765,517.92507 Z" id="front-belly-tint" fill="#4291FC"></path>
        <path d="M312.338264,656.685876 C323.971096,653.624605 329.787512,643.828535 329.787512,627.297668 C340.601933,585.350666 348.044442,555.969266 352.11504,539.153466 C361.012483,502.397784 363.689347,485.286747 361.012483,471.172813 C355.567306,442.462766 355.567306,442.462766 340.80809,419.743449 C333.548821,408.569031 272.582199,382.089808 264,430.764027 C255.417801,479.438247 285.7052,488.928501 285.7052,516.173507 C285.7052,541.311083 276.521385,612.603564 276.521385,627.297668 C276.521385,632.580665 265.385462,646.832213 269.174333,652.093969 C275.923813,661.467237 294.889015,661.277784 312.338264,656.685876 Z" id="left-leg" fill="#206BE4"></path>
        <g id="toe-beans" transform="translate(264.944238, 636.129469)" fill="#4291FC">
            <path d="M32.0557621,27.8705306 C40.0557621,27.8705306 40.0557621,22.9456628 40.0557621,16.8705306 C40.0557621,10.7953983 37.5134628,5.87053057 32.0557621,5.87053057 C26.5980614,5.87053057 24.0557621,10.7953983 24.0557621,16.8705306 C24.0557621,22.9456628 24.0557621,27.8705306 32.0557621,27.8705306 Z" id="Oval-Copy-2" transform="translate(32.055762, 16.870531) rotate(-3.000000) translate(-32.055762, -16.870531) "></path>
            <path d="M19.0557621,27.8705306 C28.0557621,27.8705306 28.0557621,22.4979476 28.0557621,15.8705306 C28.0557621,9.24311358 25.1956754,3.87053057 19.0557621,3.87053057 C12.9158489,3.87053057 10.0557621,9.24311358 10.0557621,15.8705306 C10.0557621,22.4979476 10.0557621,27.8705306 19.0557621,27.8705306 Z" id="Oval" transform="translate(19.055762, 15.870531) rotate(3.000000) translate(-19.055762, -15.870531) "></path>
            <path d="M44.5557621,24.8705306 C51.0557621,24.8705306 51.0557621,20.8410933 51.0557621,15.8705306 C51.0557621,10.8999678 48.9901439,6.87053057 44.5557621,6.87053057 C40.1213803,6.87053057 38.0557621,10.8999678 38.0557621,15.8705306 C38.0557621,20.8410933 38.0557621,24.8705306 44.5557621,24.8705306 Z" id="Oval-Copy-3" transform="translate(44.555762, 15.870531) rotate(-3.000000) translate(-44.555762, -15.870531) "></path>
            <path d="M8.5,23 C15,23 15,18.0751322 15,12 C15,5.92486775 12.9343818,1 8.5,1 C4.0656182,1 2,5.92486775 2,12 C2,18.0751322 2,23 8.5,23 Z" id="Oval-Copy" transform="translate(8.500000, 12.000000) rotate(9.000000) translate(-8.500000, -12.000000) "></path>
        </g>
        <g id="head" transform="translate(61.000000, 103.000000)">
            <path d="M102.219208,10 C91.6941864,46.386762 85.1622712,74.4548988 82.6234627,94.2044104 C78.8152499,123.828678 75.2629115,140.919741 56.3582081,156.377019 C37.4535046,171.834297 18.7403689,175.834821 9.70282154,164.524619 C0.665274153,153.214417 -6.10399388,142.523405 9.70282154,103.599281 C18.5890858,81.7169456 44.8651307,49.2895847 82.6234627,19.9401819 C87.3020046,16.3035697 93.8339197,12.9901757 102.219208,10 Z" id="right-ear" fill="#16409F"></path>
            <circle id="eyeball-left" fill="#FFFFFF" cx="186.219208" cy="57" r="22"></circle>
            <circle id="iris-left" fill="#3A0364" cx="187.719208" cy="63.5" r="17.5"></circle>
            <path d="M188.219208,77 C197.552541,76.6710448 202.219208,74.0446732 202.219208,69.1208853 C202.219208,64.1970974 201.512258,60.4901356 200.098359,58 C201.490277,63.3400988 201.191183,67.6173623 199.201076,70.8317907 C197.21097,74.0462191 193.550347,76.1022889 188.219208,77 Z" id="eye-liner" fill="#4291FC"></path>
            <circle id="eyeball-right" fill="#FFFFFF" cx="104.219208" cy="49" r="22"></circle>
            <path d="M100.535133,67.9680632 C107.033463,67.9674821 112.727778,60.1789567 112.728637,50.5719518 C112.729497,40.9649469 106.562108,33.1774823 100.538246,33.1780209 C94.5143832,33.1785596 88.7086462,40.8467798 88.7077867,50.4537846 C88.7069271,60.0607895 94.0368024,67.9686443 100.535133,67.9680632 Z" id="iris-right" fill="#3A0364" transform="translate(100.718212, 50.573042) rotate(9.000000) translate(-100.718212, -50.573042) "></path>
            <path d="M154.017171,0.405048375 C172.910675,0.405048375 216.157653,5.05135817 230.867552,26.7096291 C253.349369,59.8109627 238.527678,124.553356 238.527678,176.15698 C238.527678,203.056922 249.823858,225.661103 243.062394,247.691724 C228.366098,295.576112 169.67869,301.053772 136.9942,298.478969 C87.0530929,294.544732 86.0542708,270.493884 86.0342944,189.185761 L86.0338867,184.135856 C86.0338867,161.406038 83.8866282,116.261563 79.1173333,90.4818726 C76.9112748,78.5573627 75.2111214,72.7927931 76.9112748,62.0851297 C78.6755326,50.9737332 79.8101877,45.7346195 82.8417089,36.5836176 C86.2519876,26.2892917 91.2770769,20.0075637 96.5977212,13.0184214 C109.182171,-3.51238001 137.796253,0.405048375 154.017171,0.405048375 Z M184.054568,43.3880017 C174.077432,43.3880017 168.611864,56.2554756 168.611864,65.0034314 C168.611864,73.7513872 175.62161,76.8086966 185.598745,76.8086966 C195.575881,76.8086966 200.328566,72.1062566 200.328566,63.3583008 C200.328566,54.610345 194.031703,43.3880017 184.054568,43.3880017 Z M96.5977212,32.118284 C89.0392851,32.118284 83.9191071,41.3013096 83.9191071,50.0492654 C83.9191071,58.7972213 87.931445,62.0852975 95.4898811,62.0852975 C103.048317,62.0852975 109.276335,58.7972213 109.276335,50.0492654 C109.276335,41.3013096 104.156157,32.118284 96.5977212,32.118284 Z" id="face" fill="#206BE4"></path>
            <path d="M176.569579,37.3865103 C182.666401,37.3872837 188.580374,41.6903808 188.579828,37.3880339 C188.579282,33.085687 182.074756,27.2953616 175.977934,27.2945882 C169.881112,27.2938148 164.558784,33.0826399 164.55933,37.3849867 C164.559876,41.6873336 170.472757,37.3857369 176.569579,37.3865103 Z" id="eyebrow-left" fill="#16409F" transform="translate(176.569579, 33.297277) rotate(-13.000000) translate(-176.569579, -33.297277) "></path>
            <path d="M108.036451,29.3534678 C114.065718,29.3518994 116.944384,31.5066438 117.869087,28.8552303 C118.79379,26.2038167 116.843507,23.3949013 111.057814,20.6902729 C105.272121,17.9856444 99.1541165,24.7878456 99.1530156,29.01745 C99.1519154,33.2470544 102.007184,29.3550362 108.036451,29.3534678 Z" id="eyebrow-right" fill="#16409F" transform="translate(108.620662, 25.530762) rotate(32.000000) translate(-108.620662, -25.530762) "></path>
            <path d="M230.630914,28 C241.920709,35.2320799 250.980092,42.5302338 257.809063,49.8944616 C262.583351,55.0429601 280.040741,74.7916532 296.250229,103.282392 C303.226212,115.543785 309.472031,133.78223 308.002942,140.42437 C306.533853,147.06651 301.761162,163.404248 280.090248,181.753242 C258.419335,200.102235 248.124238,211 233.81394,211 C219.503642,211 200.6672,203.115302 193.16914,185.197314 C185.671081,167.279326 194.077934,144.96432 200.514586,131.425082 C204.805687,122.398924 214.109919,109.818358 228.42728,93.6833848 C232.018387,83.2418313 233.81394,73.8936343 233.81394,65.6387935 C233.81394,57.3839528 232.752931,44.8376883 230.630914,28 Z" id="left-ear" fill="#16409F"></path>
            <path d="M115.258842,180 C134.246647,180 165.219208,161.620157 165.219208,150.871775 C165.219208,140.123393 138.008127,147.41913 119.020323,147.41913 C100.032518,147.41913 84.219208,146.72598 84.219208,155.172299 C84.219208,163.618619 96.2710378,180 115.258842,180 Z" id="chin" fill="#16409F"></path>
            <path d="M141.331678,213.758413 C165.988597,216.903808 147.682288,188.850014 147.682288,157.900486 C147.682288,126.950959 112.219208,139.940937 112.219208,155.044373 C112.219208,170.147809 116.674759,210.613018 141.331678,213.758413 Z" id="tongue" fill="#F39DCA"></path>
            <path d="M131.923309,161 C158.596353,161 180.219208,144.07892 180.219208,123.205709 C180.219208,102.332499 166.214458,83.8572195 153.965354,80.5867504 C148.020936,78.9996109 138.370727,48.0296299 129.338232,47.0286994 C119.758313,45.9671067 105.588968,74.6990099 101.527235,76.4217292 C86.8391599,82.651443 70.3500608,106.740946 70.3500608,118.859682 C70.3500608,127.45509 68.6534975,143.82393 77.4781898,151.040374 C81.886411,154.645223 91.0267768,155.069356 104.899287,152.312772 C117.942489,158.104257 126.950497,161 131.923309,161 Z" id="snout" fill="#4291FC"></path>
            <path d="M101.72426,145.618569 C118.005744,145.61727 128.608776,133.781924 128.609786,121.125593 C128.610796,108.469261 118.009132,103.167312 101.727648,103.16861 C85.4461637,103.169909 74.843653,108.47355 74.8426429,121.129881 C74.8416329,133.786213 85.4427759,145.619868 101.72426,145.618569 Z" id="nose" fill="#210335" transform="translate(101.726215, 124.393590) rotate(8.000000) translate(-101.726215, -124.393590) "></path>
        </g>
    </g>
</svg>