<?xml version="1.0" encoding="UTF-8"?>
<svg width="500px" height="680px" viewBox="0 0 500 680" version="1.1" xmlns="http://www.w3.org/2000/svg" xmlns:xlink="http://www.w3.org/1999/xlink">
    <!-- Generator: Sketch 57.1 (83088) - https://sketch.com -->
    <title>dog-hind</title>
    <desc>Created with Sketch.</desc>
    <defs>
        <linearGradient x1="50%" y1="0%" x2="50%" y2="100%" id="linearGradient-1">
            <stop stop-color="#3F196F" offset="0%"></stop>
            <stop stop-color="#16409F" offset="100%"></stop>
        </linearGradient>
        <linearGradient x1="50%" y1="32.5512035%" x2="50%" y2="100%" id="linearGradient-2">
            <stop stop-color="#206BE4" offset="0%"></stop>
            <stop stop-color="#43A4F3" offset="100%"></stop>
        </linearGradient>
    </defs>
    <g id="Page-1" stroke="none" stroke-width="1" fill="none" fill-rule="evenodd">
        <path d="M284.877423,338.808365 C295.63041,338.817761 310.973769,343.19768 313.918852,297.502932 C316.863935,251.808184 316.863935,207.941394 313.918852,160.502932 C310.070677,98.5177564 290.565946,26.8621824 284.877423,36.7245398 C279.1889,46.5868971 284.10335,98.5177564 284.10335,159.08989 C284.10335,207.941394 281.29256,251.808184 279.1889,296.523298 C277.08524,341.238412 274.402596,338.799212 284.877423,338.808365 Z" id="tail" fill="#206BE4" transform="translate(296.686646, 187.366962) rotate(11.000000) translate(-296.686646, -187.366962) "></path>
        <path d="M213.928814,520.595276 C246.517253,520.595276 260.31096,526.197422 272.935402,540.12753 C285.559845,554.057638 285.69705,570.097796 281.390277,595.033846 C279.875268,603.805692 263.880489,603.2959 259.529166,608.40684 C251.510823,617.824957 248.65866,624.594985 250.523164,632.769221 C253.399479,645.379379 276.903007,640.393215 287.418864,640.310637 C297.934721,640.228059 302.987587,634.210737 308.172695,623.976884 C313.357803,613.743032 313.674015,610.721365 313.674015,604.620663 C313.674015,598.519961 328.155033,530.958638 324.435261,510.49555 C320.715488,490.032463 306.298839,508.07211 292.920183,490.450388 C279.541528,472.828665 279.541528,472.828665 272.824476,442.516302 C266.107424,412.20394 261.710332,337.077664 220.693365,334.690971 C179.676397,332.304278 123.046231,393.444616 123.046231,433.801014 C123.046231,474.157413 181.340375,520.595276 213.928814,520.595276 Z" id="right-back-leg" fill="url(#linearGradient-1)" transform="translate(224.046231, 487.987211) rotate(4.000000) translate(-224.046231, -487.987211) "></path>
        <path d="M-2.99858781,320.417481 C100.238097,318.756237 189.892016,302.256112 256.396947,320.549295 C311.985191,335.839679 329.867467,424.158139 329.867467,446.660043 C329.867467,497.47024 46.6323207,520.130563 2.00527112,520.130563 C0.471749256,520.130563 -1.1966898,520.163096 -2.991355,520.225331 L-2.99858781,320.417481 Z" id="body-bum" fill="#206BE4"></path>
        <path d="M169.547661,507.120669 C207.905129,503.53748 239,498.65243 239,489.465697 C239,480.278964 171.079441,457.676079 169.547661,472.831645 C168.526475,482.935356 144.354509,496.528723 97.031763,513.611747 C119.80405,511.673154 143.976016,509.509461 169.547661,507.120669 Z" id="back-belly-tint" fill="#4291FC"></path>
        <path d="M265.584858,536.969835 C304.520933,536.969835 325.983128,541.046689 336.084858,557.552127 C346.186589,574.057566 351.332243,589.13357 346.186589,615.410162 C344.376483,624.653576 334.854604,626.555329 329.655722,631.941029 C320.075552,641.865456 319.088198,651.638734 321.315873,660.25241 C324.752443,673.540479 347.398157,668.763306 359.962312,668.676289 C372.526466,668.589272 378.563539,662.248463 384.758612,651.464447 C390.953685,640.680431 384.758612,631.941029 384.758612,625.512358 C384.758612,621.862383 382.538693,584.854802 384.758612,557.552127 C386.448617,536.76684 392.074828,539.817917 388.113373,523.748517 C384.151917,507.679117 369.601173,510.101336 359.962312,505.204382 C350.32345,500.307427 343.977737,486.63533 335.952325,454.693399 C327.926913,422.751469 322.673348,343.586466 273.667021,341.071466 C224.660694,338.556466 157,402.983659 157,445.509584 C157,488.03551 226.648783,536.969835 265.584858,536.969835 Z" id="left-back-leg" fill="url(#linearGradient-2)"></path>
        <g id="back-toe-beans" transform="translate(315.000000, 645.000000)" fill="#43A4F3">
            <path d="M32.0557621,27.8705306 C40.0557621,27.8705306 40.0557621,22.9456628 40.0557621,16.8705306 C40.0557621,10.7953983 37.5134628,5.87053057 32.0557621,5.87053057 C26.5980614,5.87053057 24.0557621,10.7953983 24.0557621,16.8705306 C24.0557621,22.9456628 24.0557621,27.8705306 32.0557621,27.8705306 Z" id="toe" transform="translate(32.055762, 16.870531) rotate(-3.000000) translate(-32.055762, -16.870531) "></path>
            <path d="M19.0557621,27.8705306 C28.0557621,27.8705306 28.0557621,22.4979476 28.0557621,15.8705306 C28.0557621,9.24311358 25.1956754,3.87053057 19.0557621,3.87053057 C12.9158489,3.87053057 10.0557621,9.24311358 10.0557621,15.8705306 C10.0557621,22.4979476 10.0557621,27.8705306 19.0557621,27.8705306 Z" id="toe" transform="translate(19.055762, 15.870531) rotate(3.000000) translate(-19.055762, -15.870531) "></path>
            <path d="M44.5557621,24.8705306 C51.0557621,24.8705306 51.0557621,20.8410933 51.0557621,15.8705306 C51.0557621,10.8999678 48.9901439,6.87053057 44.5557621,6.87053057 C40.1213803,6.87053057 38.0557621,10.8999678 38.0557621,15.8705306 C38.0557621,20.8410933 38.0557621,24.8705306 44.5557621,24.8705306 Z" id="toe" transform="translate(44.555762, 15.870531) rotate(-3.000000) translate(-44.555762, -15.870531) "></path>
            <path d="M8.5,23 C15,23 15,18.0751322 15,12 C15,5.92486775 12.9343818,1 8.5,1 C4.0656182,1 2,5.92486775 2,12 C2,18.0751322 2,23 8.5,23 Z" id="toe" transform="translate(8.500000, 12.000000) rotate(9.000000) translate(-8.500000, -12.000000) "></path>
        </g>
    </g>
</svg>