<?xml version="1.0" encoding="UTF-8"?>
<svg width="500px" height="680px" viewBox="0 0 500 680" version="1.1" xmlns="http://www.w3.org/2000/svg" xmlns:xlink="http://www.w3.org/1999/xlink">
    <!-- Generator: Sketch 57.1 (83088) - https://sketch.com -->
    <title>dog-head</title>
    <desc>Created with Sketch.</desc>
    <defs>
        <linearGradient x1="50%" y1="0%" x2="50%" y2="100%" id="linearGradient-1">
            <stop stop-color="#3F196F" offset="0%"></stop>
            <stop stop-color="#16409F" offset="100%"></stop>
        </linearGradient>
        <linearGradient x1="50%" y1="22.4160684%" x2="50%" y2="100%" id="linearGradient-2">
            <stop stop-color="#206BE4" offset="0%"></stop>
            <stop stop-color="#43A4F3" offset="100%"></stop>
        </linearGradient>
        <linearGradient x1="50%" y1="0%" x2="50%" y2="26.1721036%" id="linearGradient-3">
            <stop stop-color="#206BE4" offset="0%"></stop>
            <stop stop-color="#4291FC" offset="100%"></stop>
        </linearGradient>
    </defs>
    <g id="Page-1" stroke="none" stroke-width="1" fill="none" fill-rule="evenodd">
        <path d="M224.443248,633.58841 C230.868996,629.588277 224.926307,621.339925 228.728769,608.029658 C235.882108,582.989868 252.249908,542.052609 258.15764,518.885254 C267.205714,483.402953 269.927896,466.884719 267.205714,453.259755 C261.668351,425.544352 261.668351,425.544352 246.659268,403.612133 C239.277101,392.824847 177.278335,367.262982 168.550843,414.250909 C159.82335,461.238837 190.623505,470.400307 190.623505,496.701423 C190.623505,520.968122 190.571575,597.426368 187.027028,609.705923 C183.482481,621.985479 174.130472,616.115164 166.582577,622.327019 C159.143948,628.44895 165.929468,649.56444 168.792444,650.753412 C173.305169,652.627513 216.316482,638.647456 224.443248,633.58841 Z" id="right-leg" fill="url(#linearGradient-1)" transform="translate(215.713160, 518.925070) rotate(16.000000) translate(-215.713160, -518.925070) "></path>
        <path d="M286.89899,312.576344 C334.80267,310.590003 425.270693,320.549295 484.933733,320.549295 C490.662585,320.549295 496.35218,320.497122 502.000947,320.400928 L502.005533,520.193453 C452.585581,521.635841 300.848277,547.271822 243.541459,532.987904 C184.588981,518.2938 186.229618,498.121503 155.488741,459.517384 C124.747865,420.913265 139.574224,388.969344 139.574224,375.944667 C139.574224,340.488316 176.275905,317.163363 286.89899,312.576344 Z" id="body-front" fill="#206BE4"></path>
        <path d="M206.178765,518.92507 C221.617128,530.190903 270.933616,541.661617 283.357531,537.302516 C287.937852,535.695448 317.472359,542.13614 378.816257,537.302516 C397.025491,535.86771 431.108694,530.175315 481.065867,520.225331 C333.85561,491.636258 260.250481,476.059201 260.250481,473.494158 C260.250481,453.335765 240.222335,417.847991 212.266381,424.808422 C184.310426,431.768853 143.83688,416.200243 143.83688,436.358637 C143.83688,445.757971 157.670951,461.114237 166.368545,473.494158 C176.324349,487.664982 190.740403,507.659238 206.178765,518.92507 Z" id="front-belly-tint" fill="#4291FC"></path>
        <path d="M301.338264,657.685876 C312.971096,654.624605 318.787512,644.828535 318.787512,628.297668 C329.601933,586.350666 337.044442,556.969266 341.11504,540.153466 C350.012483,503.397784 352.689347,486.286747 350.012483,472.172813 C344.567306,443.462766 344.567306,443.462766 329.80809,420.743449 C322.548821,409.569031 261.582199,383.089808 253,431.764027 C244.417801,480.438247 274.7052,489.928501 274.7052,517.173507 C274.7052,542.311083 265.521385,613.603564 265.521385,628.297668 C265.521385,633.580665 254.385462,647.832213 258.174333,653.093969 C264.923813,662.467237 283.889015,662.277784 301.338264,657.685876 Z" id="left-leg" fill="url(#linearGradient-2)"></path>
        <g id="front-toe-beans" transform="translate(253.944238, 637.129469)" fill="#43A4F3">
            <path d="M32.0557621,27.8705306 C40.0557621,27.8705306 40.0557621,22.9456628 40.0557621,16.8705306 C40.0557621,10.7953983 37.5134628,5.87053057 32.0557621,5.87053057 C26.5980614,5.87053057 24.0557621,10.7953983 24.0557621,16.8705306 C24.0557621,22.9456628 24.0557621,27.8705306 32.0557621,27.8705306 Z" id="toe" transform="translate(32.055762, 16.870531) rotate(-3.000000) translate(-32.055762, -16.870531) "></path>
            <path d="M8.5,23 C15,23 15,18.0751322 15,12 C15,5.92486775 12.9343818,1 8.5,1 C4.0656182,1 2,5.92486775 2,12 C2,18.0751322 2,23 8.5,23 Z" id="toe" transform="translate(8.500000, 12.000000) rotate(9.000000) translate(-8.500000, -12.000000) "></path>
            <path d="M19.0557621,27.8705306 C28.0557621,27.8705306 28.0557621,22.4979476 28.0557621,15.8705306 C28.0557621,9.24311358 25.1956754,3.87053057 19.0557621,3.87053057 C12.9158489,3.87053057 10.0557621,9.24311358 10.0557621,15.8705306 C10.0557621,22.4979476 10.0557621,27.8705306 19.0557621,27.8705306 Z" id="toe" transform="translate(19.055762, 15.870531) rotate(3.000000) translate(-19.055762, -15.870531) "></path>
            <path d="M44.5557621,24.8705306 C51.0557621,24.8705306 51.0557621,20.8410933 51.0557621,15.8705306 C51.0557621,10.8999678 48.9901439,6.87053057 44.5557621,6.87053057 C40.1213803,6.87053057 38.0557621,10.8999678 38.0557621,15.8705306 C38.0557621,20.8410933 38.0557621,24.8705306 44.5557621,24.8705306 Z" id="toe" transform="translate(44.555762, 15.870531) rotate(-3.000000) translate(-44.555762, -15.870531) "></path>
        </g>
        <g id="head" transform="translate(50.000000, 104.000000)">
            <path d="M102.219208,10 C91.6941864,46.386762 85.1622712,74.4548988 82.6234627,94.2044104 C78.8152499,123.828678 75.2629115,140.919741 56.3582081,156.377019 C37.4535046,171.834297 18.7403689,175.834821 9.70282154,164.524619 C0.665274153,153.214417 -6.10399388,142.523405 9.70282154,103.599281 C18.5890858,81.7169456 44.8651307,49.2895847 82.6234627,19.9401819 C87.3020046,16.3035697 93.8339197,12.9901757 102.219208,10 Z" id="right-ear" fill="#16409F"></path>
            <circle id="eyeball-left" fill="#FFFFFF" cx="186.219208" cy="57" r="22"></circle>
            <circle id="iris-left" fill="#3A0364" cx="187.719208" cy="63.5" r="17.5"></circle>
            <path d="M188.219208,77 C197.552541,76.6710448 202.219208,74.0446732 202.219208,69.1208853 C202.219208,64.1970974 201.512258,60.4901356 200.098359,58 C201.490277,63.3400988 201.191183,67.6173623 199.201076,70.8317907 C197.21097,74.0462191 193.550347,76.1022889 188.219208,77 Z" id="eye-liner" fill="#4291FC"></path>
            <circle id="eyeball-right" fill="#FFFFFF" cx="104.219208" cy="49" r="22"></circle>
            <path d="M100.535133,67.9680632 C107.033463,67.9674821 112.727778,60.1789567 112.728637,50.5719518 C112.729497,40.9649469 106.562108,33.1774823 100.538246,33.1780209 C94.5143832,33.1785596 88.7086462,40.8467798 88.7077867,50.4537846 C88.7069271,60.0607895 94.0368024,67.9686443 100.535133,67.9680632 Z" id="iris-right" fill="#3A0364" transform="translate(100.718212, 50.573042) rotate(9.000000) translate(-100.718212, -50.573042) "></path>
            <path d="M154.017171,0.405048375 C172.910675,0.405048375 216.157653,5.05135817 230.867552,26.7096291 C253.349369,59.8109627 238.527678,124.553356 238.527678,176.15698 C238.527678,203.056922 249.823858,225.661103 243.062394,247.691724 C228.366098,295.576112 169.67869,301.053772 136.9942,298.478969 C87.0530929,294.544732 86.0542708,270.493884 86.0342944,189.185761 L86.0338867,184.135856 C86.0338867,161.406038 83.8866282,116.261563 79.1173333,90.4818726 C76.9112748,78.5573627 75.2111214,72.7927931 76.9112748,62.0851297 C78.6755326,50.9737332 79.8101877,45.7346195 82.8417089,36.5836176 C86.2519876,26.2892917 91.2770769,20.0075637 96.5977212,13.0184214 C109.182171,-3.51238001 137.796253,0.405048375 154.017171,0.405048375 Z M184.054568,43.3880017 C174.077432,43.3880017 168.611864,56.2554756 168.611864,65.0034314 C168.611864,73.7513872 175.62161,76.8086966 185.598745,76.8086966 C195.575881,76.8086966 200.328566,72.1062566 200.328566,63.3583008 C200.328566,54.610345 194.031703,43.3880017 184.054568,43.3880017 Z M96.5977212,32.118284 C89.0392851,32.118284 83.9191071,41.3013096 83.9191071,50.0492654 C83.9191071,58.7972213 87.931445,62.0852975 95.4898811,62.0852975 C103.048317,62.0852975 109.276335,58.7972213 109.276335,50.0492654 C109.276335,41.3013096 104.156157,32.118284 96.5977212,32.118284 Z" id="face" fill="#206BE4"></path>
            <path d="M176.569579,37.3865103 C182.666401,37.3872837 188.580374,41.6903808 188.579828,37.3880339 C188.579282,33.085687 182.074756,27.2953616 175.977934,27.2945882 C169.881112,27.2938148 164.558784,33.0826399 164.55933,37.3849867 C164.559876,41.6873336 170.472757,37.3857369 176.569579,37.3865103 Z" id="eyebrow-left" fill="#16409F" transform="translate(176.569579, 33.297277) rotate(-13.000000) translate(-176.569579, -33.297277) "></path>
            <path d="M108.036451,29.3534678 C114.065718,29.3518994 116.944384,31.5066438 117.869087,28.8552303 C118.79379,26.2038167 116.843507,23.3949013 111.057814,20.6902729 C105.272121,17.9856444 99.1541165,24.7878456 99.1530156,29.01745 C99.1519154,33.2470544 102.007184,29.3550362 108.036451,29.3534678 Z" id="eyebrow-right" fill="#16409F" transform="translate(108.620662, 25.530762) rotate(32.000000) translate(-108.620662, -25.530762) "></path>
            <path d="M230.630914,28 C241.920709,35.2320799 250.980092,42.5302338 257.809063,49.8944616 C262.583351,55.0429601 280.040741,74.7916532 296.250229,103.282392 C303.226212,115.543785 309.472031,133.78223 308.002942,140.42437 C306.533853,147.06651 301.761162,163.404248 280.090248,181.753242 C258.419335,200.102235 248.124238,211 233.81394,211 C219.503642,211 200.6672,203.115302 193.16914,185.197314 C185.671081,167.279326 194.077934,144.96432 200.514586,131.425082 C204.805687,122.398924 214.109919,109.818358 228.42728,93.6833848 C232.018387,83.2418313 233.81394,73.8936343 233.81394,65.6387935 C233.81394,57.3839528 232.752931,44.8376883 230.630914,28 Z" id="left-ear" fill="#16409F"></path>
            <path d="M115.258842,180 C134.246647,180 165.219208,161.620157 165.219208,150.871775 C165.219208,140.123393 138.008127,147.41913 119.020323,147.41913 C100.032518,147.41913 84.219208,146.72598 84.219208,155.172299 C84.219208,163.618619 96.2710378,180 115.258842,180 Z" id="chin" fill="#16409F"></path>
            <path d="M141.331678,213.758413 C165.988597,216.903808 147.682288,188.850014 147.682288,157.900486 C147.682288,126.950959 112.219208,139.940937 112.219208,155.044373 C112.219208,170.147809 116.674759,210.613018 141.331678,213.758413 Z" id="tongue" fill="#F39DCA"></path>
            <path d="M131.923309,161 C158.596353,161 180.219208,144.07892 180.219208,123.205709 C180.219208,102.332499 166.214458,83.8572195 153.965354,80.5867504 C148.020936,78.9996109 138.370727,48.0296299 129.338232,47.0286994 C119.758313,45.9671067 105.588968,74.6990099 101.527235,76.4217292 C86.8391599,82.651443 70.3500608,106.740946 70.3500608,118.859682 C70.3500608,127.45509 68.6534975,143.82393 77.4781898,151.040374 C81.886411,154.645223 91.0267768,155.069356 104.899287,152.312772 C117.942489,158.104257 126.950497,161 131.923309,161 Z" id="snout" fill="url(#linearGradient-3)"></path>
            <path d="M101.72426,145.618569 C118.005744,145.61727 128.608776,133.781924 128.609786,121.125593 C128.610796,108.469261 118.009132,103.167312 101.727648,103.16861 C85.4461637,103.169909 74.843653,108.47355 74.8426429,121.129881 C74.8416329,133.786213 85.4427759,145.619868 101.72426,145.618569 Z" id="nose" fill="#210335" transform="translate(101.726215, 124.393590) rotate(8.000000) translate(-101.726215, -124.393590) "></path>
        </g>
    </g>
</svg>