<?xml version="1.0" encoding="UTF-8"?>
<svg width="500px" height="680px" viewBox="0 0 500 680" version="1.1" xmlns="http://www.w3.org/2000/svg" xmlns:xlink="http://www.w3.org/1999/xlink">
    <!-- Generator: Sketch 57.1 (83088) - https://sketch.com -->
    <title>Slice Bum</title>
    <desc>Created with Sketch.</desc>
    <g id="Page-1" stroke="none" stroke-width="1" fill="none" fill-rule="evenodd">
        <path d="M276.877423,338.808365 C287.63041,338.817761 302.973769,343.19768 305.918852,297.502932 C308.863935,251.808184 308.863935,207.941394 305.918852,160.502932 C302.070677,98.5177564 282.565946,26.8621824 276.877423,36.7245398 C271.1889,46.5868971 276.10335,98.5177564 276.10335,159.08989 C276.10335,207.941394 273.29256,251.808184 271.1889,296.523298 C269.08524,341.238412 266.402596,338.799212 276.877423,338.808365 Z" id="tail" fill="#206BE4" transform="translate(288.686646, 187.366962) rotate(11.000000) translate(-288.686646, -187.366962) "></path>
        <path d="M205.928814,520.595276 C238.517253,520.595276 252.31096,526.197422 264.935402,540.12753 C277.559845,554.057638 277.69705,570.097796 273.390277,595.033846 C271.875268,603.805692 255.880489,603.2959 251.529166,608.40684 C243.510823,617.824957 240.65866,624.594985 242.523164,632.769221 C245.399479,645.379379 268.903007,640.393215 279.418864,640.310637 C289.934721,640.228059 294.987587,634.210737 300.172695,623.976884 C305.357803,613.743032 305.674015,610.721365 305.674015,604.620663 C305.674015,598.519961 320.155033,530.958638 316.435261,510.49555 C312.715488,490.032463 298.298839,508.07211 284.920183,490.450388 C271.541528,472.828665 271.541528,472.828665 264.824476,442.516302 C258.107424,412.20394 253.710332,337.077664 212.693365,334.690971 C171.676397,332.304278 115.046231,393.444616 115.046231,433.801014 C115.046231,474.157413 173.340375,520.595276 205.928814,520.595276 Z" id="right-back-leg" fill="#16409F" transform="translate(216.046231, 487.987211) rotate(4.000000) translate(-216.046231, -487.987211) "></path>
        <path d="M-10.9985878,320.417481 C92.2380974,318.756237 181.892016,302.256112 248.396947,320.549295 C303.985191,335.839679 321.867467,424.158139 321.867467,446.660043 C321.867467,497.47024 38.6323207,520.130563 -5.99472888,520.130563 C-7.52825074,520.130563 -9.1966898,520.163096 -10.991355,520.225331 L-10.9985878,320.417481 Z" id="body-bum" fill="#206BE4"></path>
        <path d="M161.547661,507.120669 C199.905129,503.53748 231,498.65243 231,489.465697 C231,480.278964 163.079441,457.676079 161.547661,472.831645 C160.526475,482.935356 136.354509,496.528723 89.031763,513.611747 C111.80405,511.673154 135.976016,509.509461 161.547661,507.120669 Z" id="back-belly-tint" fill="#4291FC"></path>
        <path d="M257.584858,536.969835 C296.520933,536.969835 317.983128,541.046689 328.084858,557.552127 C338.186589,574.057566 343.332243,589.13357 338.186589,615.410162 C336.376483,624.653576 326.854604,626.555329 321.655722,631.941029 C312.075552,641.865456 311.088198,651.638734 313.315873,660.25241 C316.752443,673.540479 339.398157,668.763306 351.962312,668.676289 C364.526466,668.589272 370.563539,662.248463 376.758612,651.464447 C382.953685,640.680431 376.758612,631.941029 376.758612,625.512358 C376.758612,621.862383 374.538693,584.854802 376.758612,557.552127 C378.448617,536.76684 384.074828,539.817917 380.113373,523.748517 C376.151917,507.679117 361.601173,510.101336 351.962312,505.204382 C342.32345,500.307427 335.977737,486.63533 327.952325,454.693399 C319.926913,422.751469 314.673348,343.586466 265.667021,341.071466 C216.660694,338.556466 149,402.983659 149,445.509584 C149,488.03551 218.648783,536.969835 257.584858,536.969835 Z" id="left-back-leg" fill="#206BE4"></path>
        <g id="toe-beans-copy" transform="translate(307.000000, 645.000000)" fill="#4291FC">
            <path d="M32.0557621,27.8705306 C40.0557621,27.8705306 40.0557621,22.9456628 40.0557621,16.8705306 C40.0557621,10.7953983 37.5134628,5.87053057 32.0557621,5.87053057 C26.5980614,5.87053057 24.0557621,10.7953983 24.0557621,16.8705306 C24.0557621,22.9456628 24.0557621,27.8705306 32.0557621,27.8705306 Z" id="Oval-Copy-2" transform="translate(32.055762, 16.870531) rotate(-3.000000) translate(-32.055762, -16.870531) "></path>
            <path d="M19.0557621,27.8705306 C28.0557621,27.8705306 28.0557621,22.4979476 28.0557621,15.8705306 C28.0557621,9.24311358 25.1956754,3.87053057 19.0557621,3.87053057 C12.9158489,3.87053057 10.0557621,9.24311358 10.0557621,15.8705306 C10.0557621,22.4979476 10.0557621,27.8705306 19.0557621,27.8705306 Z" id="Oval" transform="translate(19.055762, 15.870531) rotate(3.000000) translate(-19.055762, -15.870531) "></path>
            <path d="M44.5557621,24.8705306 C51.0557621,24.8705306 51.0557621,20.8410933 51.0557621,15.8705306 C51.0557621,10.8999678 48.9901439,6.87053057 44.5557621,6.87053057 C40.1213803,6.87053057 38.0557621,10.8999678 38.0557621,15.8705306 C38.0557621,20.8410933 38.0557621,24.8705306 44.5557621,24.8705306 Z" id="Oval-Copy-3" transform="translate(44.555762, 15.870531) rotate(-3.000000) translate(-44.555762, -15.870531) "></path>
            <path d="M8.5,23 C15,23 15,18.0751322 15,12 C15,5.92486775 12.9343818,1 8.5,1 C4.0656182,1 2,5.92486775 2,12 C2,18.0751322 2,23 8.5,23 Z" id="Oval-Copy" transform="translate(8.500000, 12.000000) rotate(9.000000) translate(-8.500000, -12.000000) "></path>
        </g>
    </g>
</svg>