<?xml version="1.0" encoding="UTF-8"?>
<svg width="500px" height="680px" viewBox="0 0 500 680" version="1.1" xmlns="http://www.w3.org/2000/svg" xmlns:xlink="http://www.w3.org/1999/xlink">
    <!-- Generator: Sketch 57.1 (83088) - https://sketch.com -->
    <title>dog-hind</title>
    <desc>Created with Sketch.</desc>
    <defs>
        <linearGradient x1="50%" y1="0%" x2="50%" y2="100%" id="linearGradient-1">
            <stop stop-color="#3F196F" offset="0%"></stop>
            <stop stop-color="#16409F" offset="100%"></stop>
        </linearGradient>
        <linearGradient x1="50%" y1="32.5512035%" x2="50%" y2="100%" id="linearGradient-2">
            <stop stop-color="#206BE4" offset="0%"></stop>
            <stop stop-color="#43A4F3" offset="100%"></stop>
        </linearGradient>
    </defs>
    <g id="Page-1" stroke="none" stroke-width="1" fill="none" fill-rule="evenodd">
        <g id="dog-hind" transform="translate(-3.786840, 312.000000)">
            <path d="M217.715654,208.595276 C250.304093,208.595276 264.097799,214.197422 276.722242,228.12753 C289.346685,242.057638 289.48389,258.097796 285.177117,283.033846 C283.662107,291.805692 267.667328,291.2959 263.316005,296.40684 C255.297663,305.824957 252.4455,312.594985 254.310003,320.769221 C257.186319,333.379379 280.689847,328.393215 291.205703,328.310637 C301.72156,328.228059 306.774427,322.210737 311.959535,311.976884 C317.144643,301.743032 317.460854,298.721365 317.460854,292.620663 C317.460854,286.519961 331.941873,218.958638 328.2221,198.49555 C324.502328,178.032463 310.085679,196.07211 296.707023,178.450388 C283.328368,160.828665 283.328368,160.828665 276.611315,130.516302 C269.894263,100.20394 265.497172,25.0776642 224.480204,22.6909712 C183.463237,20.3042782 126.833071,81.4446156 126.833071,121.801014 C126.833071,162.157413 185.127214,208.595276 217.715654,208.595276 Z" id="right-back-leg" fill="url(#linearGradient-1)" transform="translate(227.833071, 175.987211) rotate(4.000000) translate(-227.833071, -175.987211) "></path>
            <path d="M0.788251925,8.41748121 C104.024937,6.75623741 193.678856,-9.74388765 260.183787,8.54929486 C315.772031,23.8396786 333.654307,112.158139 333.654307,134.660043 C333.654307,185.47024 50.4191604,208.130563 5.79211086,208.130563 C4.25858899,208.130563 2.59014994,208.163096 0.795484738,208.225331 L0.788251925,8.41748121 Z" id="body-bum" fill="#206BE4"></path>
            <path d="M173.334501,195.120669 C211.691968,191.53748 242.78684,186.65243 242.78684,177.465697 C242.78684,168.278964 174.866281,145.676079 173.334501,160.831645 C172.313314,170.935356 148.141348,184.528723 100.818603,201.611747 C123.59089,199.673154 147.762856,197.509461 173.334501,195.120669 Z" id="back-belly-tint" fill="#4291FC"></path>
            <path d="M269.371698,224.969835 C308.307773,224.969835 329.769967,229.046689 339.871698,245.552127 C349.973429,262.057566 355.119083,277.13357 349.973429,303.410162 C348.163323,312.653576 338.641443,314.555329 333.442562,319.941029 C323.862392,329.865456 322.875038,339.638734 325.102713,348.25241 C328.539282,361.540479 351.184997,356.763306 363.749151,356.676289 C376.313306,356.589272 382.350379,350.248463 388.545452,339.464447 C394.740525,328.680431 388.545452,319.941029 388.545452,313.512358 C388.545452,309.862383 386.325533,272.854802 388.545452,245.552127 C390.235457,224.76684 395.861668,227.817917 391.900212,211.748517 C387.938757,195.679117 373.388013,198.101336 363.749151,193.204382 C354.11029,188.307427 347.764577,174.63533 339.739165,142.693399 C331.713753,110.751469 326.460188,31.5864658 277.453861,29.0714661 C228.447533,26.5564664 160.78684,90.9836586 160.78684,133.509584 C160.78684,176.03551 230.435623,224.969835 269.371698,224.969835 Z" id="left-back-leg" fill="url(#linearGradient-2)"></path>
            <g id="back-toe-beans" transform="translate(318.786840, 333.000000)" fill="#43A4F3">
                <path d="M32.0557621,27.8705306 C40.0557621,27.8705306 40.0557621,22.9456628 40.0557621,16.8705306 C40.0557621,10.7953983 37.5134628,5.87053057 32.0557621,5.87053057 C26.5980614,5.87053057 24.0557621,10.7953983 24.0557621,16.8705306 C24.0557621,22.9456628 24.0557621,27.8705306 32.0557621,27.8705306 Z" id="toe" transform="translate(32.055762, 16.870531) rotate(-3.000000) translate(-32.055762, -16.870531) "></path>
                <path d="M19.0557621,27.8705306 C28.0557621,27.8705306 28.0557621,22.4979476 28.0557621,15.8705306 C28.0557621,9.24311358 25.1956754,3.87053057 19.0557621,3.87053057 C12.9158489,3.87053057 10.0557621,9.24311358 10.0557621,15.8705306 C10.0557621,22.4979476 10.0557621,27.8705306 19.0557621,27.8705306 Z" id="toe" transform="translate(19.055762, 15.870531) rotate(3.000000) translate(-19.055762, -15.870531) "></path>
                <path d="M44.5557621,24.8705306 C51.0557621,24.8705306 51.0557621,20.8410933 51.0557621,15.8705306 C51.0557621,10.8999678 48.9901439,6.87053057 44.5557621,6.87053057 C40.1213803,6.87053057 38.0557621,10.8999678 38.0557621,15.8705306 C38.0557621,20.8410933 38.0557621,24.8705306 44.5557621,24.8705306 Z" id="toe" transform="translate(44.555762, 15.870531) rotate(-3.000000) translate(-44.555762, -15.870531) "></path>
                <path d="M8.5,23 C15,23 15,18.0751322 15,12 C15,5.92486775 12.9343818,1 8.5,1 C4.0656182,1 2,5.92486775 2,12 C2,18.0751322 2,23 8.5,23 Z" id="toe" transform="translate(8.500000, 12.000000) rotate(9.000000) translate(-8.500000, -12.000000) "></path>
            </g>
        </g>
    </g>
</svg>