<?xml version="1.0" encoding="UTF-8"?>
<svg width="894px" height="520px" viewBox="0 0 894 520" version="1.1" xmlns="http://www.w3.org/2000/svg" xmlns:xlink="http://www.w3.org/1999/xlink">
    <!-- Generator: Sketch 57.1 (83088) - https://sketch.com -->
    <title>Path</title>
    <desc>Created with Sketch.</desc>
    <g id="Page-1" stroke="none" stroke-width="1" fill="none" fill-rule="evenodd">
        <path d="M263.369565,428 C234.577295,489.333333 220.181159,520 128.405797,520 C36.6304348,520 1,463.149827 1,384 C1,331.233449 43.1352657,289.900116 127.405797,260 C42.468599,229.333333 0,188 0,136 C0,58 35.6304348,0 127.405797,0 C219.181159,0 233.577295,30.6666667 262.369565,92 L630.630435,92 C659.422705,30.6666667 673.818841,0 765.594203,0 C857.369565,0 893,58 893,136 C893,188 850.531401,229.333333 765.594203,260 C851.198068,289.900116 894,331.233449 894,384 C894,463.149827 858.369565,520 766.594203,520 C674.818841,520 660.422705,489.333333 631.630435,428 L263.369565,428 Z" id="Path" fill="#f9f871"></path>
    </g>
</svg>